<?xml version="1.0" encoding="utf-8"?>
<svg xmlns="http://www.w3.org/2000/svg"
	xmlns:xlink="http://www.w3.org/1999/xlink"
	width="43px" height="31px" viewBox="0 0 43 31">
<path fillRule="evenodd" d="M 40.95 27.73C 40.95 27.73 34.75 27.73 34.75 27.73 34.06 27.73 33.5 27.17 33.5 26.48 33.5 25.79 34.06 25.23 34.75 25.23 34.75 25.23 39.19 25.23 39.19 25.23 38.3 24.04 36.48 22.87 35.46 22.36 34.85 22.05 34.6 21.3 34.9 20.68 35.21 20.06 35.96 19.81 36.58 20.12 37.15 20.4 42.2 23.01 42.2 26.48 42.2 27.17 41.64 27.73 40.95 27.73ZM 30.38 20.49C 28.69 20.49 27.1 19.83 25.91 18.63 25.42 18.14 25.42 17.35 25.91 16.86 26.4 16.37 27.19 16.37 27.68 16.86 28.4 17.59 29.36 17.98 30.38 17.98 32.49 17.98 34.21 16.27 34.21 14.15 34.21 12.04 32.49 10.32 30.38 10.32 29.87 10.32 29.36 10.42 28.89 10.62 28.26 10.89 27.52 10.59 27.25 9.96 26.99 9.32 27.28 8.59 27.92 8.32 28.7 7.99 29.53 7.82 30.38 7.82 33.87 7.82 36.71 10.66 36.71 14.15 36.71 17.65 33.87 20.49 30.38 20.49ZM 16.55 19.87C 11.24 19.87 6.92 15.55 6.92 10.23 6.92 4.92 11.24 0.6 16.55 0.6 21.85 0.6 26.17 4.92 26.17 10.23 26.17 15.55 21.85 19.87 16.55 19.87ZM 16.55 3.94C 13.08 3.94 10.25 6.76 10.25 10.23 10.25 13.71 13.08 16.53 16.55 16.53 20.02 16.53 22.84 13.71 22.84 10.23 22.84 6.76 20.02 3.94 16.55 3.94ZM 13.72 20.54C 13.72 20.54 16.55 22.94 16.55 22.94 16.55 22.94 19.38 20.54 19.38 20.54 19.81 20.17 20.41 20.05 20.96 20.23 23.73 21.11 32.79 24.37 32.79 29.23 32.79 30.15 32.05 30.9 31.13 30.9 31.13 30.9 1.97 30.9 1.97 30.9 1.05 30.9 0.3 30.15 0.3 29.23 0.3 24.37 9.36 21.11 12.14 20.23 12.68 20.05 13.28 20.17 13.72 20.54ZM 4.78 27.56C 4.78 27.56 28.31 27.56 28.31 27.56 26.73 26.22 23.74 24.72 20.81 23.7 20.81 23.7 17.62 26.4 17.62 26.4 17 26.92 16.09 26.92 15.47 26.4 15.47 26.4 12.28 23.7 12.28 23.7 9.36 24.72 6.37 26.22 4.78 27.56Z" fill="rgb(80,194,174)"/></svg>